<?xml version="1.0" standalone="no"?>
<!DOCTYPE svg PUBLIC "-//W3C//DTD SVG 20010904//EN"
 "http://www.w3.org/TR/2001/REC-SVG-20010904/DTD/svg10.dtd">
<svg version="1.0" xmlns="http://www.w3.org/2000/svg"
 width="1280.000000pt" height="978.000000pt" viewBox="0 0 1280.000000 978.000000"
 preserveAspectRatio="xMidYMid meet">

<g transform="translate(0.000000,978.000000) scale(0.100000,-0.100000)"
fill="#000000" stroke="none">
<path d="M0 5540 l0 -4240 565 0 565 0 0 285 0 285 -210 0 -210 0 0 3670 0
3670 4950 0 4950 0 0 -215 0 -215 355 0 355 0 0 500 0 500 -5660 0 -5660 0 0
-4240z"/>
<path d="M1480 4240 l0 -4240 5660 0 5660 0 0 4240 0 4240 -5660 0 -5660 0 0
-4240z m10610 0 l0 -3670 -4950 0 -4950 0 0 3670 0 3670 4950 0 4950 0 0
-3670z"/>
<path d="M5375 7463 c-284 -45 -536 -242 -641 -501 -47 -117 -59 -180 -59
-317 1 -147 16 -224 71 -343 239 -523 928 -646 1336 -239 156 156 237 355 238
580 0 375 -240 693 -602 798 -72 21 -272 34 -343 22z"/>
<path d="M8547 6095 c-260 -96 -799 -737 -1595 -1897 -228 -333 -722 -1088
-886 -1355 -22 -35 -42 -63 -45 -63 -3 0 -44 69 -90 153 -259 467 -562 957
-793 1279 -149 209 -249 330 -393 473 -114 115 -153 147 -214 178 -129 65
-196 48 -301 -79 -293 -354 -755 -1468 -1351 -3256 -93 -279 -169 -509 -169
-512 0 -3 1994 -6 4430 -6 2437 0 4430 2 4430 5 0 17 -627 1252 -948 1865
-1029 1970 -1731 3116 -1969 3216 -39 17 -57 17 -106 -1z"/>
</g>
</svg>
